<svg height="344.000000pt" preserveAspectRatio="xMidYMid meet" version="1.0"
    viewBox="0 0 344.000000 344.000000" width="344.000000pt" xmlns="http://www.w3.org/2000/svg">
    <metadata>
        Created by potrace 1.16, written by Peter Selinger 2001-2019
    </metadata>
    <g fill="#000000" stroke="none"
        transform="translate(0.000000,344.000000) scale(0.100000,-0.100000)">
        <path d="M280 3010 l0 -149 152 -3 151 -3 56 -135 57 -135 1031 -3 1031 -2
-196 -355 -197 -355 -605 0 -605 0 -132 -213 c-73 -116 -139 -229 -147 -249
-25 -59 -21 -172 8 -234 31 -67 97 -129 163 -154 52 -19 79 -20 938 -20 l885
0 0 145 0 145 -855 0 c-629 0 -855 3 -855 11 0 7 36 69 81 140 l80 128 562 3
562 3 47 23 c25 13 64 42 85 65 23 24 151 244 308 527 256 459 270 488 270
536 -1 54 -27 103 -68 127 -17 9 -265 13 -1105 17 l-1083 5 -59 140 -58 140
-251 3 -251 2 0 -150z" />
        <path d="M0 2150 l0 -150 458 0 457 0 86 138 c48 75 89 143 93 150 6 9 -106
12 -543 12 l-551 0 0 -150z" />
        <path d="M0 1575 l0 -145 278 0 279 0 55 88 c30 48 72 113 92 145 l37 57 -371
0 -370 0 0 -145z" />
        <path d="M1011 829 c-100 -50 -153 -140 -152 -259 0 -118 55 -206 159 -257 48
-24 69 -28 132 -27 87 1 132 18 191 71 64 58 93 123 93 213 1 63 -4 84 -27
132 -52 105 -141 158 -267 158 -55 0 -78 -6 -129 -31z" />
        <path d="M2455 836 c-108 -50 -172 -162 -163 -286 21 -293 415 -370 549 -107
30 58 37 159 15 225 -22 66 -87 139 -151 168 -70 33 -180 33 -250 0z" />
    </g>
</svg>
