<svg height="344.000000pt" preserveAspectRatio="xMidYMid meet" version="1.0"
    viewBox="0 0 344.000000 344.000000" width="344.000000pt" xmlns="http://www.w3.org/2000/svg">
    <metadata>
        Created by potrace 1.16, written by Peter Selinger 2001-2019
    </metadata>
    <g fill="#000000" stroke="none"
        transform="translate(0.000000,344.000000) scale(0.100000,-0.100000)">
        <path d="M1153 3150 c-220 -31 -412 -128 -574 -289 -139 -140 -224 -290 -272
-481 -30 -125 -30 -341 2 -464 47 -182 126 -327 249 -458 156 -165 355 -269
582 -303 120 -19 181 -19 300 0 160 24 328 94 449 186 l53 40 29 -27 c28 -27
29 -32 29 -118 l0 -91 433 -433 432 -432 148 148 147 147 -433 433 -432 432
-91 0 c-87 0 -91 1 -119 30 l-29 30 21 22 c63 71 138 213 176 333 172 551
-163 1138 -728 1276 -92 22 -281 32 -372 19z m352 -323 c113 -37 198 -90 285
-177 87 -87 139 -172 177 -285 24 -71 27 -95 27 -215 0 -120 -3 -144 -27 -215
-38 -113 -90 -198 -177 -285 -87 -87 -172 -139 -285 -177 -71 -24 -95 -27
-215 -27 -120 0 -144 3 -215 27 -113 38 -198 90 -285 177 -87 87 -139 172
-177 285 -24 71 -27 95 -27 215 0 119 3 144 27 215 79 238 261 409 508 475
106 29 273 23 384 -13z" />
    </g>
</svg>
